# xmcd
#
# Track frame offsets:
#	150
#	15688
#	28127
#	41006
#	54500
#	64443
#	77666
#	88484
#	99353
#	107319
#	115955
#	126394
#
# Disc length: 1828 seconds
#
# Revision: 0
# Processed by: cddbd v1.5.2PL0 Copyright (c) Steve Scherf et al.
# Submitted via: audiograbber 1.83.01
#
DISCID=a107220c
DTITLE=Various Artists Country - Country Total CD-2
DYEAR=2002
DGENRE=Country
TTITLE0=Ted Dallas - No Rompas Mi Corazón
TTITLE1=Johnny Cash - Folsom Prison Blues
TTITLE2=Kenny Rogers - Ruby Don't Take Your Love To Town
TTITLE3=Frankie Laine - California Blood Lines
TTITLE4=Dave Dudley - Six Days On The Road
TTITLE5=Lynn Anderson - Rose Garden
TTITLE6=Roger Cline - Truckers Lady
TTITLE7=Buddy Meredith - Lonely In Person
TTITLE8=Willie Nelson - Things To Remember
TTITLE9=Waylon Jennings - Love's Gonna Live Here
TTITLE10=George Jones - With Half A Heart
TTITLE11=Lynn Anderson - Heaven's Just A Sin Away
EXTD=YEAR: 2002
EXTT0=
EXTT1=
EXTT2=
EXTT3=
EXTT4=
EXTT5=
EXTT6=
EXTT7=
EXTT8=
EXTT9=
EXTT10=
EXTT11=
PLAYORDER=
